<svg xmlns="http://www.w3.org/2000/svg" width="120" height="120" viewBox="0 0 120 120">
    <defs>
        <linearGradient id="a" x1="19.908%" x2="60.796%" y1="14.045%" y2="72.359%">
            <stop offset="0%" stop-color="#FF758C"/>
            <stop offset="100%" stop-color="#FF7EB3"/>
        </linearGradient>
    </defs>
    <g fill="none" fill-rule="evenodd">
        <path stroke="#2E2E2E" stroke-linecap="round" stroke-width="6" d="M54.826 91.72l-.077 12.544h-5.702M86.256 69.047s9.568 17.775 26.719.727M71.14 78.93l14.524 21.472 7.48-5.06"/>
        <path fill="url(#a)" d="M77.815 33.9C64.39 23.374 40.328 7.695 25.051 1.782 14.48-2.31 4.22 2.79 2.671 14.02.225 31.772-.422 59.672 1.24 75.774 2.403 87.05 12.373 92.91 23.027 89.036 37.4 83.811 64.487 69.32 77.223 59.4c8.945-6.965 9.514-18.506.592-25.5" transform="translate(18.814 8)"/>
        <path fill="#2E2E2E" d="M52.847 68.373c-.572.111-.976.652-.88 1.227l.003.01a6.92 6.92 0 0 0 8.059 5.65c3.345-.607 5.804-3.67 5.675-7.068a6.852 6.852 0 0 0-.147-1.18 1.102 1.102 0 0 0-1.286-.852l-11.424 2.213z"/>
        <path stroke="#2E2E2E" stroke-linecap="round" stroke-width="6" d="M63 57.36a6.919 6.919 0 0 1 13.838 0M35.212 60.378a6.919 6.919 0 1 1 13.602-2.544M30.054 78.349S24.434 87.527 13 81.713"/>
    </g>
</svg>
